<svg xmlns="http://www.w3.org/2000/svg" viewBox="0 0 239.66 51.35"><defs><style>.cls-1{fill:#c51718;}</style></defs><title>GRADE</title><g id="Warstwa_2" data-name="Warstwa 2"><g id="Layer_1" data-name="Layer 1"><path class="cls-1" d="M126.63,32.89c0,3.55-1.59,5.66-5.3,5.66a22.36,22.36,0,0,1-4.28-.46V44.7l-4,.56V22.2h3.19l.4,1.35a8.4,8.4,0,0,1,5.06-1.68c3.22,0,4.94,1.91,4.94,5.56Zm-9.58,1.81a17.78,17.78,0,0,0,3.55.43c1.45,0,2-.69,2-2.14V27.33c0-1.31-.49-2-2-2a5.69,5.69,0,0,0-3.59,1.45Z"/><path class="cls-1" d="M138.83,25.56a31.4,31.4,0,0,0-4.25,2.33V38.22h-4v-16H134l.26,1.78a18,18,0,0,1,4.21-2.11Z"/><path class="cls-1" d="M147.77,38.55c-5.49,0-7-3-7-6.32v-4c0-3.29,1.48-6.32,7-6.32s7,3,7,6.32v4C154.75,35.52,153.27,38.55,147.77,38.55Zm0-13.26c-2.13,0-3,1-3,2.77v4.3c0,1.81.83,2.77,3,2.77s3-1,3-2.77v-4.3C150.73,26.25,149.91,25.29,147.77,25.29Z"/><path class="cls-1" d="M16.19,31.79c0,2.14.92,3.39,3.81,3.39a24.18,24.18,0,0,0,3.39-.26V28.27H27.3v9.64a28,28,0,0,1-7.33,1c-5.36,0-7.93-2.27-7.93-6.61V22.94c0-4.5,2.63-6.61,8.32-6.61a26.62,26.62,0,0,1,6.29.73l-.46,3.61A29.73,29.73,0,0,0,20,20.08c-2.89,0-3.84,1.19-3.84,3.42Z"/><path class="cls-1" d="M44.87,38.57l-5-7.24h-4v7.24H31.74V16.66h9c5.1,0,7,2.07,7,5.92v2.86c0,2.63-1,4.48-3.29,5.3l5.43,7.83ZM40.56,20.31H35.89v7.44h4.67c2.27,0,3-.83,3-2.67V22.91C43.55,21.07,42.76,20.31,40.56,20.31Z"/><path class="cls-1" d="M65.56,34H57.43l-1.38,4.54H51.71l6.91-21.91h5.79l6.9,21.91H67Zm-7.11-3.59h6.06l-3-10.36Z"/><path class="cls-1" d="M82.76,16.66c5.4,0,7.27,2.73,7.27,5.89V32.68c0,3.13-1.87,5.89-7.27,5.89H74.6V16.66Zm-4,18.26h3.58c2.8,0,3.56-1.12,3.56-3.23V23.54c0-2.11-.76-3.23-3.56-3.23H78.75Z"/><path class="cls-1" d="M94.47,16.66h13.42v3.65H98.61v5.3h8.56v3.65H98.61v5.66h9.28v3.65H94.47Z"/><line class="cls-1" x1="21.04" y1="28.78" x2="27.3" y2="28.78"/><rect class="cls-1" x="21.04" y="26.95" width="6.27" height="3.66"/><path class="cls-1" d="M203.13,16.74c5.35,0,7.21,2.71,7.21,5.83v10c0,3.09-1.86,5.83-7.21,5.83h-8.08V16.74Zm-4,18.09h3.55c2.77,0,3.52-1.11,3.52-3.19V23.55c0-2.08-.75-3.19-3.52-3.19h-3.55Z"/><path class="cls-1" d="M219.17,20.36h-6.06V16.74h16.23v3.62h-6.06V38.45h-4.11Z"/><path class="cls-1" d="M191,26.79h-6.07v3.55H187v4.39a24.75,24.75,0,0,1-3.43.26c-2.94,0-3.87-1.25-3.87-3.39V23.32c0-2.24,1-3.43,3.9-3.43a29.82,29.82,0,0,1,6.24.6l.46-3.62a27.18,27.18,0,0,0-6.37-.72c-5.76,0-8.43,2.1-8.43,6.61V32.1c0,4.34,2.6,6.61,8,6.61a28.8,28.8,0,0,0,7.43-1Z"/><rect class="cls-1" x="163.63" y="2.39" width="3.31" height="47.87"/><path class="cls-1" d="M233.6,51.35H6.07A6,6,0,0,1,0,45.4V6A6,6,0,0,1,6.07,0H233.6a6,6,0,0,1,6.06,6V45.4A6,6,0,0,1,233.6,51.35ZM6.07,3.31A2.7,2.7,0,0,0,3.31,6V45.4A2.7,2.7,0,0,0,6.07,48H233.6a2.69,2.69,0,0,0,2.75-2.64V6a2.69,2.69,0,0,0-2.75-2.64Z"/></g></g></svg>